
        <svg xmlns="http://www.w3.org/2000/svg" xmlns:xlink="http://www.w3.org/1999/xlink" version="1.1" width="3143.606169195981" 
        height="981.9331206905039" viewBox="0 -107.70462689698573 3143.606169195981 981.9331206905039">
			
			<g transform="scale(7.180308459799049) translate(10, 10)">
				<defs id="SvgjsDefs1777"></defs><g id="SvgjsG1778" featureKey="nYIUkx-0" transform="matrix(3.6340575890304176,0,0,3.6340575890304176,38.09782723290875,-18.63405758903042)" fill="#07689f"><g xmlns="http://www.w3.org/2000/svg" transform="translate(-450 -440)"><g xmlns="http://www.w3.org/2000/svg" xmlns:xlink="http://www.w3.org/1999/xlink"><path d="M455,455c0-5.31,4.166-9.656,9.4-9.971l1.517-1.982C465.613,443.023,465.31,443,465,443c-6.627,0-12,5.373-12,12    c0,4.391,2.365,8.219,5.884,10.31l0.521-2.027C456.749,461.484,455,458.441,455,455z"></path><path d="M471.074,444.664l-0.549,2.008C473.22,448.467,475,451.527,475,455c0,5.31-4.166,9.656-9.4,9.969l-1.518,1.984    C464.387,466.977,464.69,467,465,467c6.627,0,12-5.373,12-12C477,450.592,474.616,446.75,471.074,444.664z"></path><polygon points="473,452 467,452 467.588,449.842 468.712,445.723 469.24,443.785 470,441 468.142,443.43 466.81,445.172     463.482,449.523 457,458 463,458 462.415,460.145 461.288,464.277 460.76,466.215 460,469 461.858,466.57 463.19,464.828     466.56,460.42   "></polygon></g></g></g><g id="SvgjsG1779" featureKey="PXhRQw-0" transform="matrix(3.7734437129005918,0,0,3.7734437129005918,154.24531124617414,-8.036906461166744)" fill="#07689f"><path d="M0.2 20 l0 -2 c0.24 0.02 0.52 0.02 0.76 0.02 c0.7 0 1.26 -0.26 1.26 -1.34 l0 -10.68 l2.2 0 l0 10.52 c0 2.8 -1.5 3.52 -3.16 3.52 c-0.4 0 -0.7 0 -1.06 -0.04 z M7.9399999999999995 9.22 l0 7.56 c0 1 0.44 1.38 1.14 1.38 s1.14 -0.38 1.14 -1.38 l0 -7.56 c0 -1 -0.44 -1.38 -1.14 -1.38 s-1.14 0.38 -1.14 1.38 z M5.74 16.64 l0 -7.28 c0 -2.24 1.18 -3.52 3.34 -3.52 s3.34 1.28 3.34 3.52 l0 7.28 c0 2.24 -1.18 3.52 -3.34 3.52 s-3.34 -1.28 -3.34 -3.52 z M17.16 6 c2.28 0 3.26 1.06 3.26 3.22 l0 0.5 c0 1.44 -0.44 2.34 -1.42 2.8 l0 0.04 c1.18 0.46 1.64 1.5 1.64 2.98 l0 1.14 c0 2.16 -1.14 3.32 -3.34 3.32 l-3.46 0 l0 -14 l3.32 0 z M17.02 13.7 l-0.98 0 l0 4.3 l1.26 0 c0.74 0 1.14 -0.34 1.14 -1.38 l0 -1.22 c0 -1.3 -0.42 -1.7 -1.42 -1.7 z M17.099999999999998 8 l-1.06 0 l0 3.7 l0.86 0 c0.82 0 1.32 -0.36 1.32 -1.48 l0 -0.78 c0 -1 -0.34 -1.44 -1.12 -1.44 z M28.380000000000003 6 c2.28 0 3.26 1.06 3.26 3.22 l0 0.5 c0 1.44 -0.44 2.34 -1.42 2.8 l0 0.04 c1.18 0.46 1.64 1.5 1.64 2.98 l0 1.14 c0 2.16 -1.14 3.32 -3.34 3.32 l-3.46 0 l0 -14 l3.32 0 z M28.240000000000002 13.7 l-0.98 0 l0 4.3 l1.26 0 c0.74 0 1.14 -0.34 1.14 -1.38 l0 -1.22 c0 -1.3 -0.42 -1.7 -1.42 -1.7 z M28.32 8 l-1.06 0 l0 3.7 l0.86 0 c0.82 0 1.32 -0.36 1.32 -1.48 l0 -0.78 c0 -1 -0.34 -1.44 -1.12 -1.44 z M35.2 9.22 l0 7.56 c0 1 0.44 1.38 1.14 1.38 s1.14 -0.38 1.14 -1.38 l0 -7.56 c0 -1 -0.44 -1.38 -1.14 -1.38 s-1.14 0.38 -1.14 1.38 z M33 16.64 l0 -7.28 c0 -2.24 1.18 -3.52 3.34 -3.52 s3.34 1.28 3.34 3.52 l0 7.28 c0 2.24 -1.18 3.52 -3.34 3.52 s-3.34 -1.28 -3.34 -3.52 z M43.120000000000005 9.22 l0 7.56 c0 1 0.44 1.38 1.14 1.38 s1.14 -0.38 1.14 -1.38 l0 -7.56 c0 -1 -0.44 -1.38 -1.14 -1.38 s-1.14 0.38 -1.14 1.38 z M40.92 16.64 l0 -7.28 c0 -2.24 1.18 -3.52 3.34 -3.52 s3.34 1.28 3.34 3.52 l0 7.28 c0 2.24 -1.18 3.52 -3.34 3.52 s-3.34 -1.28 -3.34 -3.52 z M48.74000000000001 9.36 c0 -2.24 1.1 -3.52 3.24 -3.52 s3.24 1.28 3.24 3.52 l0 0.44 l-2.08 0 l0 -0.58 c0 -1 -0.4 -1.38 -1.1 -1.38 s-1.1 0.38 -1.1 1.38 c0 1.02 0.44 1.78 1.88 3.04 c1.84 1.62 2.42 2.78 2.42 4.38 c0 2.24 -1.12 3.52 -3.28 3.52 s-3.28 -1.28 -3.28 -3.52 l0 -0.86 l2.08 0 l0 1 c0 1 0.44 1.36 1.14 1.36 s1.14 -0.36 1.14 -1.36 c0 -1.02 -0.44 -1.78 -1.88 -3.04 c-1.84 -1.62 -2.42 -2.78 -2.42 -4.38 z M55.86 8 l0 -2 l6.8 0 l0 2 l-2.3 0 l0 12 l-2.2 0 l0 -12 l-2.3 0 z M63.34 9.36 c0 -2.24 1.1 -3.52 3.24 -3.52 s3.24 1.28 3.24 3.52 l0 0.44 l-2.08 0 l0 -0.58 c0 -1 -0.4 -1.38 -1.1 -1.38 s-1.1 0.38 -1.1 1.38 c0 1.02 0.44 1.78 1.88 3.04 c1.84 1.62 2.42 2.78 2.42 4.38 c0 2.24 -1.12 3.52 -3.28 3.52 s-3.28 -1.28 -3.28 -3.52 l0 -0.86 l2.08 0 l0 1 c0 1 0.44 1.36 1.14 1.36 s1.14 -0.36 1.14 -1.36 c0 -1.02 -0.44 -1.78 -1.88 -3.04 c-1.84 -1.62 -2.42 -2.78 -2.42 -4.38 z"></path></g><g id="SvgjsG1780" featureKey="mlRtrp-0" transform="matrix(0.750790412836272,0,0,0.750790412836272,67.42337851115484,86.3149172757371)" fill="#07689f"><path d="M17.178 11.1621 c0 0.67058 -0.097656 1.2874 -0.29297 1.8506 s-0.50944 1.0481 -0.94238 1.4551 s-0.99443 0.72429 -1.6846 0.95215 s-1.53 0.3418 -2.5195 0.3418 l-6.0156 0 l0 4.2383 l-3.623 0 l0 -13.418 l9.6387 0 c0.98955 0 1.8294 0.1123 2.5195 0.33691 s1.2517 0.54036 1.6846 0.94727 s0.74707 0.8903 0.94238 1.4502 s0.29297 1.1751 0.29297 1.8457 z M13.516 11.2207 c0 -0.3125 -0.043945 -0.58104 -0.13184 -0.80565 s-0.23274 -0.40853 -0.43457 -0.55176 s-0.4655 -0.24902 -0.79102 -0.31738 s-0.72591 -0.10254 -1.2012 -0.10254 l-5.2344 0 l0 3.457 l5.2344 0 c0.47526 0 0.87565 -0.027666 1.2012 -0.083008 s0.58919 -0.14975 0.79102 -0.28321 s0.34668 -0.30762 0.43457 -0.52246 s0.13184 -0.47852 0.13184 -0.79102 z M37.539171875 13.300799999999999 c0 1.1523 -0.21159 2.1696 -0.63477 3.0518 s-1.0286 1.6194 -1.8164 2.2119 s-1.7432 1.04 -2.8662 1.3428 s-2.3845 0.4541 -3.7842 0.4541 s-2.6644 -0.15137 -3.7939 -0.4541 s-2.0915 -0.75032 -2.8857 -1.3428 s-1.4063 -1.3298 -1.8359 -2.2119 s-0.64453 -1.8994 -0.64453 -3.0518 s0.21484 -2.1696 0.64453 -3.0518 s1.0417 -1.6194 1.8359 -2.2119 s1.7562 -1.04 2.8857 -1.3428 s2.3942 -0.4541 3.7939 -0.4541 s2.6611 0.15137 3.7842 0.4541 s2.0784 0.75032 2.8662 1.3428 s1.3933 1.3298 1.8164 2.2119 s0.63477 1.8994 0.63477 3.0518 z M33.877171875 13.300799999999999 c0 -0.5013 -0.079756 -1.001 -0.23926 -1.499 s-0.44271 -0.94563 -0.84961 -1.3428 s-0.96191 -0.7194 -1.665 -0.9668 s-1.5983 -0.37109 -2.6855 -0.37109 c-0.72917 0 -1.3704 0.056963 -1.9238 0.1709 s-1.0319 0.27182 -1.4355 0.47364 s-0.74219 0.43783 -1.0156 0.70802 s-0.49153 0.5599 -0.6543 0.86915 s-0.27832 0.63151 -0.34668 0.9668 s-0.10254 0.66568 -0.10254 0.99121 c0 0.33203 0.03418 0.66731 0.10254 1.0059 s0.18392 0.66244 0.34668 0.97169 s0.38086 0.59733 0.6543 0.86426 s0.61198 0.49967 1.0156 0.69823 s0.88216 0.35481 1.4355 0.46875 s1.1946 0.1709 1.9238 0.1709 c1.0872 0 1.9824 -0.1237 2.6855 -0.37109 s1.2581 -0.56966 1.665 -0.9668 s0.69011 -0.84473 0.84961 -1.3428 s0.23926 -0.99775 0.23926 -1.499 z M53.779578125 6.582000000000001 l3.4277 9.3164 l3.7109 -9.3164 l3.7598 0 l-5.3906 13.418 l-4.0234 0 l-3.5059 -9.0234 l-3.4961 9.0234 l-4.0234 0 l-5.4004 -13.418 l3.7695 0 l3.6328 9.1211 l3.5059 -9.1211 l4.0332 0 z M66.9824125 20 l0 -13.418 l13.584 0 l0 2.8613 l-9.8633 0 l0 2.2168 l9.3555 0 l0 2.8613 l-9.3555 0 l0 2.6172 l10 0 l0 2.8613 l-13.721 0 z M87.822309375 20 l-3.623 0 l0 -13.418 l9.082 0 c0.97656 0 1.805 0.10091 2.4854 0.30273 s1.2337 0.48828 1.6602 0.85938 s0.73568 0.81868 0.92774 1.3428 s0.28809 1.1084 0.28809 1.7529 c0 0.56641 -0.079756 1.0612 -0.23926 1.4844 s-0.37435 0.78613 -0.64453 1.0889 s-0.58432 0.55827 -0.94239 0.7666 s-0.73568 0.38086 -1.1328 0.51758 l4.3945 5.3027 l-4.2383 0 l-4.0625 -4.9414 l-3.9551 0 l0 4.9414 z M94.980609375 10.8203 c0 -0.26042 -0.03418 -0.48174 -0.10254 -0.66403 s-0.18718 -0.33041 -0.35645 -0.44435 s-0.39551 -0.19694 -0.67871 -0.24902 s-0.6364 -0.078125 -1.0596 -0.078125 l-4.9609 0 l0 2.8711 l4.9609 0 c0.42317 0 0.77637 -0.026045 1.0596 -0.078125 s0.50944 -0.13509 0.67871 -0.24902 s0.28809 -0.26205 0.35645 -0.44435 s0.10254 -0.40365 0.10254 -0.66407 z M118.613703125 14.5215 l0 5.4785 l-3.6133 0 l0 -5.4785 l-6.5039 -7.9395 l4.0625 0 l4.2578 5.4004 l4.2383 -5.4004 l4.0625 0 z M144.589953125 13.300799999999999 c0 1.1523 -0.21159 2.1696 -0.63477 3.0518 s-1.0286 1.6194 -1.8164 2.2119 s-1.7432 1.04 -2.8662 1.3428 s-2.3845 0.4541 -3.7842 0.4541 s-2.6644 -0.15137 -3.7939 -0.4541 s-2.0915 -0.75032 -2.8857 -1.3428 s-1.4063 -1.3298 -1.8359 -2.2119 s-0.64453 -1.8994 -0.64453 -3.0518 s0.21484 -2.1696 0.64453 -3.0518 s1.0417 -1.6194 1.8359 -2.2119 s1.7562 -1.04 2.8857 -1.3428 s2.3942 -0.4541 3.7939 -0.4541 s2.6611 0.15137 3.7842 0.4541 s2.0784 0.75032 2.8662 1.3428 s1.3933 1.3298 1.8164 2.2119 s0.63477 1.8994 0.63477 3.0518 z M140.927953125 13.300799999999999 c0 -0.5013 -0.079756 -1.001 -0.23926 -1.499 s-0.44271 -0.94563 -0.84961 -1.3428 s-0.96191 -0.7194 -1.665 -0.9668 s-1.5983 -0.37109 -2.6855 -0.37109 c-0.72917 0 -1.3704 0.056963 -1.9238 0.1709 s-1.0319 0.27182 -1.4355 0.47364 s-0.74219 0.43783 -1.0156 0.70802 s-0.49153 0.5599 -0.6543 0.86915 s-0.27832 0.63151 -0.34668 0.9668 s-0.10254 0.66568 -0.10254 0.99121 c0 0.33203 0.03418 0.66731 0.10254 1.0059 s0.18392 0.66244 0.34668 0.97169 s0.38086 0.59733 0.6543 0.86426 s0.61198 0.49967 1.0156 0.69823 s0.88216 0.35481 1.4355 0.46875 s1.1946 0.1709 1.9238 0.1709 c1.0872 0 1.9824 -0.1237 2.6855 -0.37109 s1.2581 -0.56966 1.665 -0.9668 s0.69011 -0.84473 0.84961 -1.3428 s0.23926 -0.99775 0.23926 -1.499 z M163.730015625 15.4785 c0 0.67058 -0.16599 1.3021 -0.49802 1.8945 s-0.83008 1.1101 -1.4941 1.5527 s-1.4925 0.79264 -2.4854 1.0498 s-2.1533 0.38574 -3.4814 0.38574 s-2.4919 -0.12858 -3.4912 -0.38574 s-1.8311 -0.60709 -2.4951 -1.0498 s-1.1621 -0.96028 -1.4941 -1.5527 s-0.49805 -1.2239 -0.49805 -1.8945 l0 -8.8965 l3.6133 0 l0 7.5977 c0 0.44922 0.056963 0.87402 0.1709 1.2744 s0.32878 0.75032 0.64453 1.0498 s0.75846 0.53711 1.3281 0.71289 s1.3103 0.26367 2.2217 0.26367 c0.90495 0 1.6406 -0.087891 2.207 -0.26367 s1.0075 -0.41341 1.3232 -0.71289 s0.52896 -0.64941 0.63964 -1.0498 s0.16602 -0.8252 0.16602 -1.2744 l0 -7.5977 l3.623 0 l0 8.8965 l0 0 z M171.455121875 20 l-3.623 0 l0 -13.418 l9.082 0 c0.97656 0 1.805 0.10091 2.4854 0.30273 s1.2337 0.48828 1.6602 0.85938 s0.73568 0.81868 0.92774 1.3428 s0.28809 1.1084 0.28809 1.7529 c0 0.56641 -0.079756 1.0612 -0.23926 1.4844 s-0.37435 0.78613 -0.64453 1.0889 s-0.58432 0.55827 -0.94239 0.7666 s-0.73568 0.38086 -1.1328 0.51758 l4.3945 5.3027 l-4.2383 0 l-4.0625 -4.9414 l-3.9551 0 l0 4.9414 z M178.613421875 10.8203 c0 -0.26042 -0.03418 -0.48174 -0.10254 -0.66403 s-0.18718 -0.33041 -0.35645 -0.44435 s-0.39551 -0.19694 -0.67871 -0.24902 s-0.6364 -0.078125 -1.0596 -0.078125 l-4.9609 0 l0 2.8711 l4.9609 0 c0.42317 0 0.77637 -0.026045 1.0596 -0.078125 s0.50944 -0.13509 0.67871 -0.24902 s0.28809 -0.26205 0.35645 -0.44435 s0.10254 -0.40365 0.10254 -0.66407 z M203.544515625 15.039100000000001 c0 0.89192 -0.14484 1.6602 -0.43456 2.3047 s-0.71289 1.1751 -1.2695 1.5918 s-1.2386 0.72429 -2.0459 0.92285 s-1.7285 0.29785 -2.7637 0.29785 c-0.48828 0 -0.98955 -0.024414 -1.5039 -0.073242 s-1.0091 -0.10905 -1.4844 -0.18066 s-0.91309 -0.14811 -1.3135 -0.22948 s-0.73405 -0.15787 -1.001 -0.22948 l0 -3.1445 c0.27344 0.11067 0.57292 0.22298 0.89844 0.33691 s0.68848 0.21647 1.0889 0.30762 s0.8431 0.16602 1.3281 0.22461 s1.0205 0.087891 1.6064 0.087891 c0.63151 0 1.1572 -0.06999 1.5771 -0.20996 s0.75684 -0.33528 1.0107 -0.58594 s0.43294 -0.54525 0.53711 -0.8838 s0.15625 -0.70964 0.15625 -1.1133 l0 -7.8809 l3.6133 0 l0 8.457 z M225.009875 13.300799999999999 c0 1.1523 -0.21159 2.1696 -0.63477 3.0518 s-1.0286 1.6194 -1.8164 2.2119 s-1.7432 1.04 -2.8662 1.3428 s-2.3845 0.4541 -3.7842 0.4541 s-2.6644 -0.15137 -3.7939 -0.4541 s-2.0915 -0.75032 -2.8857 -1.3428 s-1.4063 -1.3298 -1.8359 -2.2119 s-0.64453 -1.8994 -0.64453 -3.0518 s0.21484 -2.1696 0.64453 -3.0518 s1.0417 -1.6194 1.8359 -2.2119 s1.7562 -1.04 2.8857 -1.3428 s2.3942 -0.4541 3.7939 -0.4541 s2.6611 0.15137 3.7842 0.4541 s2.0784 0.75032 2.8662 1.3428 s1.3933 1.3298 1.8164 2.2119 s0.63477 1.8994 0.63477 3.0518 z M221.347875 13.300799999999999 c0 -0.5013 -0.079756 -1.001 -0.23926 -1.499 s-0.44271 -0.94563 -0.84961 -1.3428 s-0.96191 -0.7194 -1.665 -0.9668 s-1.5983 -0.37109 -2.6855 -0.37109 c-0.72917 0 -1.3704 0.056963 -1.9238 0.1709 s-1.0319 0.27182 -1.4355 0.47364 s-0.74219 0.43783 -1.0156 0.70802 s-0.49153 0.5599 -0.6543 0.86915 s-0.27832 0.63151 -0.34668 0.9668 s-0.10254 0.66568 -0.10254 0.99121 c0 0.33203 0.03418 0.66731 0.10254 1.0059 s0.18392 0.66244 0.34668 0.97169 s0.38086 0.59733 0.6543 0.86426 s0.61198 0.49967 1.0156 0.69823 s0.88216 0.35481 1.4355 0.46875 s1.1946 0.1709 1.9238 0.1709 c1.0872 0 1.9824 -0.1237 2.6855 -0.37109 s1.2581 -0.56966 1.665 -0.9668 s0.69011 -0.84473 0.84961 -1.3428 s0.23926 -0.99775 0.23926 -1.499 z M243.6129375 16.2988 c0 0.52083 -0.068369 0.97333 -0.20509 1.3574 s-0.32715 0.71451 -0.57129 0.99121 s-0.53711 0.5013 -0.87891 0.67383 s-0.7194 0.30925 -1.1328 0.41016 s-0.85449 0.1709 -1.3232 0.20996 s-0.95378 0.058594 -1.4551 0.058594 l-9.7363 0 l0 -13.418 l9.5605 0 c0.38411 0 0.76985 0.016279 1.1572 0.048828 s0.75684 0.092773 1.1084 0.18066 s0.67871 0.20996 0.98145 0.36621 s0.56641 0.36133 0.79102 0.61523 s0.40039 0.55989 0.52734 0.91797 s0.19043 0.78125 0.19043 1.2695 c0 0.87239 -0.21484 1.5642 -0.64453 2.0752 s-1.1067 0.85123 -2.0313 1.0205 c0.65104 0.045576 1.2093 0.14486 1.6748 0.29786 s0.84473 0.36133 1.1377 0.625 s0.50781 0.58594 0.64453 0.9668 s0.20508 0.8252 0.20508 1.333 z M239.0919375 10.5566 c0 -0.16927 -0.026045 -0.3304 -0.078125 -0.4834 s-0.14648 -0.28809 -0.2832 -0.40527 s-0.32227 -0.21159 -0.55664 -0.2832 s-0.53386 -0.10742 -0.89844 -0.10742 l-5.3418 0 l0 2.5195 l5.3418 0 c0.36458 0 0.66406 -0.032549 0.89844 -0.097656 s0.41992 -0.153 0.55664 -0.26367 s0.23112 -0.24251 0.2832 -0.39551 s0.078125 -0.31413 0.078125 -0.4834 z M239.9319375 15.8789 c0 -0.30599 -0.05208 -0.55177 -0.15625 -0.73731 s-0.26693 -0.32878 -0.48829 -0.42969 s-0.50781 -0.16764 -0.85938 -0.20019 s-0.77148 -0.048828 -1.2598 -0.048828 l-5.2344 0 l0 2.8418 l5.2344 0 c0.48828 0 0.9082 -0.016279 1.2598 -0.048828 s0.63802 -0.10091 0.85938 -0.20508 s0.38412 -0.24902 0.48829 -0.43457 s0.15625 -0.43132 0.15625 -0.7373 z M266.796984375 10.3613 c-0.25391 -0.1237 -0.58916 -0.26372 -1.0059 -0.41997 s-0.88867 -0.30437 -1.416 -0.44434 s-1.1003 -0.25716 -1.7188 -0.35156 s-1.2532 -0.1416 -1.9043 -0.1416 c-0.52083 0 -0.96517 0.016279 -1.333 0.048828 s-0.67709 0.074863 -0.92774 0.12694 s-0.44922 0.1123 -0.5957 0.18066 s-0.25879 0.13835 -0.33691 0.20996 s-0.12858 0.14322 -0.15137 0.21483 s-0.03418 0.13672 -0.03418 0.19531 c0 0.19531 0.097656 0.36621 0.29297 0.5127 s0.46224 0.27669 0.80078 0.39063 s0.73242 0.22136 1.1816 0.32227 s0.9261 0.20508 1.4307 0.3125 s1.0254 0.22461 1.5625 0.35156 s1.0579 0.27507 1.5625 0.44434 s0.98145 0.36621 1.4307 0.59082 s0.8431 0.48665 1.1816 0.78613 s0.60547 0.64453 0.80078 1.0352 s0.29297 0.83659 0.29297 1.3379 c0 0.64453 -0.11394 1.1979 -0.3418 1.6602 s-0.53223 0.85286 -0.91309 1.1719 s-0.82194 0.57455 -1.3232 0.76661 s-1.0271 0.34018 -1.5771 0.44435 s-1.1067 0.17253 -1.6699 0.20508 s-1.0986 0.048828 -1.6064 0.048828 c-1.3281 0 -2.5569 -0.10905 -3.6865 -0.32715 s-2.1272 -0.4899 -2.9932 -0.81542 l0 -3.2031 c0.89192 0.49479 1.9092 0.88217 3.0518 1.1621 s2.3649 0.41992 3.667 0.41992 c0.76823 0 1.3948 -0.040693 1.8799 -0.12207 s0.86426 -0.18555 1.1377 -0.3125 s0.45898 -0.2653 0.55664 -0.41504 s0.14648 -0.29297 0.14648 -0.42969 c0 -0.21484 -0.097656 -0.40202 -0.29297 -0.56152 s-0.46224 -0.29947 -0.80078 -0.41991 s-0.73242 -0.23111 -1.1816 -0.33202 s-0.9261 -0.20182 -1.4307 -0.30272 s-1.0237 -0.20996 -1.5576 -0.32715 s-1.053 -0.25554 -1.5576 -0.41504 s-0.98145 -0.34505 -1.4307 -0.55664 s-0.8431 -0.46225 -1.1816 -0.75196 s-0.60547 -0.625 -0.80078 -1.0059 s-0.29297 -0.82194 -0.29297 -1.3232 c0 -0.59245 0.10417 -1.1035 0.3125 -1.5332 s0.4899 -0.7959 0.84472 -1.0986 s0.76497 -0.54851 1.2305 -0.7373 s0.95541 -0.33528 1.4697 -0.43945 s1.0352 -0.17578 1.5625 -0.21484 s1.0286 -0.058594 1.5039 -0.058594 c0.52083 0 1.0563 0.026045 1.6064 0.078125 s1.0921 0.12532 1.626 0.21973 s1.0498 0.20346 1.5479 0.32716 s0.95866 0.25391 1.3818 0.39063 l0 3.1055 z M271.33788125 20 l0 -13.418 l13.584 0 l0 2.8613 l-9.8633 0 l0 2.2168 l9.3555 0 l0 2.8613 l-9.3555 0 l0 2.6172 l10 0 l0 2.8613 l-13.721 0 z M299.336078125 17.4609 l-7.4805 0 l-1.2598 2.5391 l-4.043 0 l7.0215 -13.418 l4.043 0 l7.0215 13.418 l-4.043 0 z M293.154278125 14.8437 l4.9023 0 l-2.4414 -4.9414 z M310.459028125 20 l-3.623 0 l0 -13.418 l9.082 0 c0.97656 0 1.805 0.10091 2.4854 0.30273 s1.2337 0.48828 1.6602 0.85938 s0.73568 0.81868 0.92774 1.3428 s0.28809 1.1084 0.28809 1.7529 c0 0.56641 -0.079756 1.0612 -0.23926 1.4844 s-0.37435 0.78613 -0.64453 1.0889 s-0.58432 0.55827 -0.94239 0.7666 s-0.73568 0.38086 -1.1328 0.51758 l4.3945 5.3027 l-4.2383 0 l-4.0625 -4.9414 l-3.9551 0 l0 4.9414 z M317.617328125 10.8203 c0 -0.26042 -0.03418 -0.48174 -0.10254 -0.66403 s-0.18718 -0.33041 -0.35645 -0.44435 s-0.39551 -0.19694 -0.67871 -0.24902 s-0.6364 -0.078125 -1.0596 -0.078125 l-4.9609 0 l0 2.8711 l4.9609 0 c0.42317 0 0.77637 -0.026045 1.0596 -0.078125 s0.50944 -0.13509 0.67871 -0.24902 s0.28809 -0.26205 0.35645 -0.44435 s0.10254 -0.40365 0.10254 -0.66407 z M340.000234375 19.08203 c-0.46875 0.19531 -0.94076 0.37102 -1.416 0.52727 s-0.9668 0.29134 -1.4746 0.40527 s-1.0433 0.2002 -1.6064 0.25879 s-1.167 0.087891 -1.8115 0.087891 c-1.3672 0 -2.6253 -0.14648 -3.7744 -0.43945 s-2.1387 -0.73405 -2.9688 -1.3232 s-1.4763 -1.3249 -1.9385 -2.207 s-0.69336 -1.9124 -0.69336 -3.0908 s0.23112 -2.2087 0.69336 -3.0908 s1.1084 -1.6179 1.9385 -2.207 s1.8196 -1.0303 2.9688 -1.3232 s2.4072 -0.43945 3.7744 -0.43945 c0.64453 0 1.2483 0.029297 1.8115 0.087891 s1.0986 0.14485 1.6064 0.25879 s0.99932 0.24902 1.4746 0.40527 s0.94727 0.33203 1.416 0.52734 l0 3.2617 c-0.37109 -0.20183 -0.76172 -0.40202 -1.1719 -0.60059 s-0.86263 -0.3776 -1.3574 -0.5371 s-1.0384 -0.28971 -1.6309 -0.39062 s-1.2598 -0.15137 -2.002 -0.15137 c-1.1394 0 -2.085 0.11719 -2.8369 0.35156 s-1.3525 0.54688 -1.8018 0.9375 s-0.76497 0.83821 -0.94727 1.3428 s-0.27344 1.0271 -0.27344 1.5674 c0 0.35808 0.039063 0.71127 0.11719 1.0596 s0.20833 0.67709 0.39063 0.98633 s0.41992 0.59408 0.71289 0.8545 s0.65755 0.48503 1.0938 0.67383 s0.94564 0.33691 1.5283 0.44434 s1.2549 0.16113 2.0166 0.16113 c0.74219 0 1.4095 -0.047197 2.002 -0.1416 s1.136 -0.21973 1.6309 -0.37598 s0.94727 -0.33366 1.3574 -0.53223 s0.80078 -0.40201 1.1719 -0.61034 l0 3.2617 l0 0 z M356.220296875 20 l0 -5.5957 l-9.2188 0 l0 5.5957 l-3.623 0 l0 -13.418 l3.623 0 l0 4.8828 l9.2188 0 l0 -4.8828 l3.623 0 l0 13.418 l-3.623 0 z M379.081990625 9.502 l0 10.498 l-3.623 0 l0 -10.498 l-5.6934 0 l0 -2.9199 l15.02 0 l0 2.9199 l-5.7031 0 z M404.3458125 13.300799999999999 c0 1.1523 -0.21159 2.1696 -0.63477 3.0518 s-1.0286 1.6194 -1.8164 2.2119 s-1.7432 1.04 -2.8662 1.3428 s-2.3845 0.4541 -3.7842 0.4541 s-2.6644 -0.15137 -3.7939 -0.4541 s-2.0915 -0.75032 -2.8857 -1.3428 s-1.4063 -1.3298 -1.8359 -2.2119 s-0.64453 -1.8994 -0.64453 -3.0518 s0.21484 -2.1696 0.64453 -3.0518 s1.0417 -1.6194 1.8359 -2.2119 s1.7562 -1.04 2.8857 -1.3428 s2.3942 -0.4541 3.7939 -0.4541 s2.6611 0.15137 3.7842 0.4541 s2.0784 0.75032 2.8662 1.3428 s1.3933 1.3298 1.8164 2.2119 s0.63477 1.8994 0.63477 3.0518 z M400.6838125 13.300799999999999 c0 -0.5013 -0.079756 -1.001 -0.23926 -1.499 s-0.44271 -0.94563 -0.84961 -1.3428 s-0.96191 -0.7194 -1.665 -0.9668 s-1.5983 -0.37109 -2.6855 -0.37109 c-0.72917 0 -1.3704 0.056963 -1.9238 0.1709 s-1.0319 0.27182 -1.4355 0.47364 s-0.74219 0.43783 -1.0156 0.70802 s-0.49153 0.5599 -0.6543 0.86915 s-0.27832 0.63151 -0.34668 0.9668 s-0.10254 0.66568 -0.10254 0.99121 c0 0.33203 0.03418 0.66731 0.10254 1.0059 s0.18392 0.66244 0.34668 0.97169 s0.38086 0.59733 0.6543 0.86426 s0.61198 0.49967 1.0156 0.69823 s0.88216 0.35481 1.4355 0.46875 s1.1946 0.1709 1.9238 0.1709 c1.0872 0 1.9824 -0.1237 2.6855 -0.37109 s1.2581 -0.56966 1.665 -0.9668 s0.69011 -0.84473 0.84961 -1.3428 s0.23926 -0.99775 0.23926 -1.499 z M424.081875 13.2812 c0 0.85938 -0.094385 1.6228 -0.28318 2.29 s-0.4541 1.2483 -0.7959 1.7432 s-0.75195 0.91472 -1.2305 1.2598 s-1.0107 0.62174 -1.5967 0.83007 s-1.2175 0.3597 -1.8945 0.4541 s-1.3835 0.1416 -2.1191 0.1416 l-8.5156 0 l0 -13.418 l8.4961 0 c0.73567 0 1.4421 0.047197 2.1191 0.1416 s1.3103 0.24577 1.8994 0.4541 s1.1247 0.4834 1.6064 0.8252 s0.89355 0.76172 1.2354 1.2598 s0.6071 1.0791 0.7959 1.7432 s0.2832 1.4226 0.2832 2.2754 z M420.429875 13.2812 c0 -0.64453 -0.083008 -1.2044 -0.24902 -1.6797 s-0.43294 -0.86752 -0.80078 -1.1768 s-0.84799 -0.54037 -1.4404 -0.69337 s-1.3151 -0.22949 -2.168 -0.22949 l-4.502 0 l0 7.5781 l4.502 0 c0.85286 0 1.5755 -0.076494 2.168 -0.22949 s1.0726 -0.38737 1.4404 -0.70313 s0.63477 -0.71126 0.80078 -1.1865 s0.24902 -1.0352 0.24902 -1.6797 z M438.164203125 17.4609 l-7.4805 0 l-1.2598 2.5391 l-4.043 0 l7.0215 -13.418 l4.043 0 l7.0215 13.418 l-4.043 0 z M431.982403125 14.8437 l4.9023 0 l-2.4414 -4.9414 z M454.08245312500003 14.5215 l0 5.4785 l-3.6133 0 l0 -5.4785 l-6.5039 -7.9395 l4.0625 0 l4.2578 5.4004 l4.2383 -5.4004 l4.0625 0 z M465.947228125 15.400400000000001 l-2.4219 0 l-0.74219 -5.8984 l0 -2.9199 l3.9063 0 l0 2.9199 z M462.988328125 20 l0 -3.1152 l3.4961 0 l0 3.1152 l-3.4961 0 z"></path></g>
			</g>
		</svg>
	